<svg xmlns="http://www.w3.org/2000/svg" width="1400" height="680" viewBox="0 0 1400 680" role="img" aria-labelledby="title desc">
<title id="title">ANFL control-plane map</title>
<desc id="desc">EchoState at the center of the canonical Aeon Nova Future Labs systems.</desc>
<defs>
  <linearGradient id="bg" x1="0" y1="0" x2="1" y2="1">
    <stop offset="0" stop-color="#0A1017"/>
    <stop offset="0.58" stop-color="#0D1621"/>
    <stop offset="1" stop-color="#071017"/>
  </linearGradient>
  <radialGradient id="violetGlow" cx="50%" cy="50%" r="50%">
    <stop offset="0" stop-color="#9D4EDD" stop-opacity="0.38"/>
    <stop offset="1" stop-color="#9D4EDD" stop-opacity="0"/>
  </radialGradient>
  <radialGradient id="copperGlow" cx="50%" cy="50%" r="50%">
    <stop offset="0" stop-color="#B87333" stop-opacity="0.26"/>
    <stop offset="1" stop-color="#B87333" stop-opacity="0"/>
  </radialGradient>
  <filter id="softGlow" x="-50%" y="-50%" width="200%" height="200%">
    <feGaussianBlur stdDeviation="8" result="blur"/>
    <feMerge><feMergeNode in="blur"/><feMergeNode in="SourceGraphic"/></feMerge>
  </filter>
  <filter id="microGlow" x="-100%" y="-100%" width="300%" height="300%">
    <feGaussianBlur stdDeviation="2.2" result="blur"/>
    <feMerge><feMergeNode in="blur"/><feMergeNode in="SourceGraphic"/></feMerge>
  </filter>
  <pattern id="grain" width="64" height="64" patternUnits="userSpaceOnUse">
    <circle cx="7" cy="9" r="0.7" fill="#F7F3E8" opacity="0.06"/>
    <circle cx="31" cy="22" r="0.5" fill="#F7F3E8" opacity="0.05"/>
    <circle cx="51" cy="44" r="0.65" fill="#9D4EDD" opacity="0.08"/>
    <circle cx="19" cy="55" r="0.5" fill="#B87333" opacity="0.06"/>
  </pattern>
</defs><rect width="1400" height="680" rx="24" fill="url(#bg)"/><circle cx="700" cy="340" r="430" fill="url(#violetGlow)" opacity="0.18"/><circle cx="700" cy="340" r="280" fill="url(#copperGlow)" opacity="0.12"/><rect width="1400" height="680" rx="24" fill="url(#grain)"/><path d="M731.1,340.0 L735.0,341.5 L738.2,343.0 L740.4,344.4 L741.3,345.3 L741.0,345.6 L739.5,345.4 L737.3,345.0 L734.7,344.7 L732.1,344.8 L729.6,345.4 L727.4,346.6 L725.5,348.1 L723.7,349.3 L721.8,350.2 L719.7,350.6 L717.3,350.7 L714.6,350.9 L711.7,351.6 L708.9,353.2 L706.3,355.7 L704.1,358.7 L702.4,361.5 L701.1,363.6 L700.0,364.4 L698.9,363.6 L697.6,361.5 L695.9,358.7 L693.7,355.7 L691.1,353.2 L688.3,351.6 L685.4,350.9 L682.7,350.7 L680.3,350.6 L678.2,350.2 L676.3,349.3 L674.5,348.1 L672.6,346.6 L670.4,345.4 L667.9,344.8 L665.3,344.7 L662.7,345.0 L660.5,345.4 L659.0,345.6 L658.7,345.3 L659.6,344.4 L661.8,343.0 L665.0,341.5 L668.9,340.0 L672.9,338.7 L676.5,337.7 L679.3,336.7 L681.2,335.8 L682.0,334.8 L682.1,333.7 L681.5,332.8 L680.9,332.3 L680.3,332.5 L680.2,333.2 L680.6,334.1 L681.5,334.9 L682.7,335.1 L683.9,334.2 L685.1,332.2 L686.2,329.3 L687.1,326.2 L687.9,323.3 L688.9,321.2 L690.2,320.2 L692.0,320.2 L694.3,320.7 L697.0,321.4 L700.0,321.6 L703.0,321.4 L705.7,320.7 L708.0,320.2 L709.8,320.2 L711.1,321.2 L712.1,323.3 L712.9,326.2 L713.8,329.3 L714.9,332.2 L716.1,334.2 L717.3,335.1 L718.5,334.9 L719.4,334.1 L719.8,333.2 L719.7,332.5 L719.1,332.3 L718.5,332.8 L717.9,333.7 L718.0,334.8 L718.8,335.8 L720.7,336.7 L723.5,337.7 L727.1,338.7 L731.1,340.0 Z" fill="none" stroke="#9D4EDD" stroke-opacity="0.096" stroke-width="0.90"/>
<path d="M766.2,340.0 L769.9,342.7 L772.9,345.4 L774.5,348.1 L774.7,350.2 L773.4,351.8 L770.6,352.8 L766.8,353.5 L762.3,354.1 L757.6,355.0 L753.0,356.4 L748.7,358.2 L744.8,360.1 L741.1,361.7 L737.6,362.8 L734.0,363.5 L730.2,363.8 L726.2,364.3 L722.0,365.5 L717.8,367.5 L713.7,370.6 L709.8,374.1 L706.3,377.6 L703.1,380.4 L700.0,381.7 L696.8,381.5 L693.4,379.8 L689.4,377.1 L685.0,374.1 L680.0,371.5 L674.8,369.4 L669.6,368.0 L664.6,367.0 L660.1,366.0 L656.1,364.5 L652.7,362.5 L649.7,360.1 L646.9,357.5 L644.3,355.1 L641.6,353.4 L638.9,352.3 L636.3,351.6 L634.1,351.2 L632.6,350.5 L632.2,349.3 L633.0,347.5 L635.0,345.2 L638.0,342.6 L641.8,340.0 L645.8,337.6 L649.5,335.3 L652.5,333.1 L654.5,330.9 L655.5,328.6 L655.7,326.3 L655.2,324.3 L654.5,322.9 L654.1,322.2 L654.2,322.2 L655.1,322.6 L656.8,322.9 L659.1,322.7 L661.8,321.6 L664.9,319.3 L668.0,316.2 L671.2,312.7 L674.4,309.4 L677.8,306.9 L681.5,305.3 L685.6,304.7 L690.1,304.6 L695.0,304.6 L700.0,304.3 L705.0,303.5 L709.6,302.5 L713.7,301.8 L717.2,301.8 L720.0,303.0 L722.5,305.5 L724.6,309.0 L726.8,313.0 L729.2,316.8 L731.8,319.9 L734.7,321.9 L737.7,322.9 L740.5,323.3 L743.0,323.5 L745.1,323.9 L746.6,324.7 L747.9,326.2 L749.1,327.9 L750.5,329.9 L752.4,331.8 L755.0,333.7 L758.3,335.6 L762.2,337.6 L766.2,340.0 Z" fill="none" stroke="#9D4EDD" stroke-opacity="0.092" stroke-width="0.90"/>
<path d="M801.3,340.0 L804.4,343.8 L806.6,347.8 L807.4,351.7 L806.5,355.2 L804.0,358.1 L799.8,360.4 L794.4,362.2 L788.1,364.0 L781.5,365.9 L774.9,368.1 L768.7,370.5 L763.1,372.9 L757.8,374.8 L752.9,376.2 L748.1,377.1 L743.1,377.6 L738.0,378.2 L732.6,379.6 L727.0,381.9 L721.4,385.3 L715.9,389.3 L710.5,393.4 L705.2,396.7 L700.0,398.6 L694.6,398.9 L688.9,397.7 L682.6,395.4 L675.9,392.6 L668.6,389.9 L661.1,387.7 L653.7,385.8 L646.6,384.1 L640.1,382.2 L634.5,379.7 L629.8,376.5 L625.9,372.9 L622.6,369.0 L619.6,365.4 L616.9,362.4 L614.3,360.2 L611.8,358.5 L609.6,357.0 L608.0,355.4 L607.2,353.2 L607.5,350.5 L609.0,347.2 L611.4,343.7 L614.6,340.0 L618.1,336.4 L621.5,332.9 L624.3,329.4 L626.2,325.9 L627.2,322.3 L627.3,318.8 L626.9,315.6 L626.4,313.0 L626.3,311.3 L626.8,310.5 L628.4,310.3 L631.1,310.1 L634.7,309.6 L639.3,308.2 L644.3,305.7 L649.8,302.4 L655.4,298.8 L661.2,295.3 L667.0,292.5 L673.1,290.6 L679.5,289.5 L686.1,288.9 L693.0,288.3 L700.0,287.4 L706.8,286.0 L713.2,284.6 L719.1,283.4 L724.2,283.3 L728.6,284.5 L732.6,287.2 L736.3,291.2 L739.9,295.9 L743.9,300.6 L748.2,304.7 L752.9,307.9 L757.9,310.1 L762.9,311.8 L767.7,313.2 L772.1,314.8 L775.9,316.8 L779.2,319.3 L782.0,322.1 L784.7,325.0 L787.5,327.9 L790.6,330.6 L794.0,333.5 L797.7,336.6 L801.3,340.0 Z" fill="none" stroke="#9D4EDD" stroke-opacity="0.088" stroke-width="0.90"/>
<path d="M835.4,340.0 L837.4,344.8 L838.5,349.8 L838.1,354.8 L836.1,359.5 L832.2,363.6 L826.7,367.1 L819.9,370.1 L812.1,373.0 L803.9,375.9 L795.8,378.9 L788.1,382.0 L781.0,384.8 L774.4,387.1 L768.3,388.7 L762.4,389.6 L756.5,390.1 L750.3,390.7 L743.8,392.0 L736.9,394.4 L729.7,397.9 L722.4,402.1 L715.0,406.5 L707.5,410.2 L700.0,412.7 L692.3,413.6 L684.2,412.9 L675.6,411.0 L666.6,408.6 L657.2,406.1 L647.6,403.9 L638.1,401.8 L629.2,399.7 L621.1,397.1 L614.1,393.8 L608.3,389.6 L603.6,384.8 L599.8,379.8 L596.7,375.0 L593.9,370.8 L591.3,367.4 L588.8,364.6 L586.5,362.2 L584.5,359.6 L583.1,356.6 L582.5,353.0 L583.0,349.0 L584.3,344.5 L586.5,340.0 L589.1,335.5 L591.7,330.9 L594.0,326.3 L595.6,321.6 L596.5,316.8 L596.8,312.0 L596.6,307.7 L596.5,304.0 L597.0,301.4 L598.3,299.7 L601.0,298.8 L605.0,298.2 L610.3,297.3 L616.8,295.7 L624.2,293.2 L632.0,289.9 L640.2,286.3 L648.5,282.9 L656.9,280.1 L665.3,278.0 L673.8,276.7 L682.5,275.8 L691.3,274.7 L700.0,273.3 L708.5,271.4 L716.6,269.4 L724.2,267.8 L731.0,267.3 L737.2,268.3 L742.8,271.0 L748.2,275.2 L753.6,280.3 L759.4,285.6 L765.6,290.6 L772.4,294.8 L779.6,298.2 L786.9,301.0 L794.1,303.6 L800.8,306.4 L806.8,309.6 L812.0,313.2 L816.4,317.0 L820.2,320.8 L823.5,324.5 L826.7,328.1 L829.7,331.8 L832.7,335.7 L835.4,340.0 Z" fill="none" stroke="#9D4EDD" stroke-opacity="0.084" stroke-width="0.90"/>
<path d="M867.7,340.0 L868.3,345.4 L868.0,351.2 L866.3,357.1 L863.1,362.7 L858.1,367.8 L851.6,372.3 L843.6,376.4 L834.8,380.3 L825.5,384.1 L816.2,387.9 L807.4,391.6 L799.2,394.9 L791.6,397.5 L784.5,399.2 L777.7,400.0 L770.8,400.3 L763.5,400.7 L755.8,401.8 L747.5,403.9 L738.6,407.2 L729.3,411.4 L719.8,415.9 L710.0,419.8 L700.0,422.7 L689.8,424.0 L679.3,423.8 L668.5,422.5 L657.3,420.6 L645.9,418.5 L634.5,416.5 L623.3,414.6 L612.8,412.3 L603.4,409.4 L595.2,405.5 L588.4,400.6 L583.0,394.9 L578.7,388.9 L575.3,383.0 L572.3,377.8 L569.5,373.3 L566.7,369.6 L563.9,366.2 L561.2,362.8 L558.8,359.1 L557.0,354.9 L556.0,350.2 L555.8,345.2 L556.5,340.0 L557.9,334.8 L559.5,329.5 L561.2,324.0 L562.6,318.4 L563.5,312.6 L564.1,306.8 L564.6,301.4 L565.3,296.7 L566.8,293.2 L569.4,290.7 L573.5,289.2 L579.2,288.1 L586.5,286.9 L595.1,285.2 L604.8,282.8 L615.2,279.7 L625.9,276.3 L636.7,273.1 L647.5,270.5 L658.1,268.7 L668.6,267.4 L679.1,266.4 L689.6,265.1 L700.0,263.3 L710.2,261.0 L720.0,258.5 L729.2,256.3 L737.9,255.3 L745.9,255.9 L753.5,258.4 L760.9,262.5 L768.4,267.7 L776.2,273.4 L784.6,278.9 L793.5,283.8 L803.0,288.1 L812.6,291.9 L822.1,295.6 L831.0,299.4 L839.0,303.7 L845.8,308.2 L851.4,312.9 L855.8,317.6 L859.3,322.0 L862.1,326.3 L864.4,330.5 L866.3,335.0 L867.7,340.0 Z" fill="none" stroke="#9D4EDD" stroke-opacity="0.080" stroke-width="0.90"/>
<path d="M897.5,340.0 L896.7,345.9 L894.9,352.3 L892.1,358.7 L887.8,365.1 L882.1,371.0 L874.8,376.4 L866.3,381.4 L856.9,386.2 L846.9,390.9 L837.0,395.6 L827.4,400.0 L818.4,403.8 L810.0,406.7 L802.1,408.6 L794.3,409.3 L786.3,409.4 L777.9,409.5 L768.8,410.1 L758.8,411.8 L748.1,414.7 L736.6,418.6 L724.7,422.9 L712.5,426.8 L700.0,429.7 L687.4,431.3 L674.6,431.6 L661.6,430.8 L648.4,429.4 L635.2,427.9 L622.2,426.3 L609.6,424.7 L597.8,422.6 L587.1,419.6 L577.9,415.5 L570.2,410.2 L564.0,403.8 L559.1,397.0 L555.1,390.2 L551.6,384.0 L548.2,378.6 L544.7,373.9 L541.0,369.7 L537.1,365.5 L533.3,361.1 L529.8,356.3 L527.0,351.1 L525.1,345.6 L524.2,340.0 L524.1,334.3 L524.8,328.5 L525.9,322.4 L527.2,316.0 L528.5,309.4 L529.9,302.7 L531.5,296.4 L533.5,290.8 L536.5,286.3 L540.8,283.0 L546.8,280.8 L554.5,279.2 L563.9,277.7 L574.8,275.8 L586.9,273.4 L599.7,270.6 L612.8,267.5 L625.9,264.8 L638.8,262.6 L651.4,261.2 L663.8,260.2 L676.0,259.4 L688.1,258.2 L700.0,256.3 L711.8,253.7 L723.3,250.7 L734.4,248.1 L745.1,246.5 L755.2,246.6 L765.1,248.6 L774.7,252.3 L784.5,257.4 L794.5,263.1 L805.2,268.9 L816.4,274.3 L828.0,279.2 L839.7,283.8 L851.2,288.4 L862.0,293.2 L871.5,298.4 L879.5,303.9 L885.9,309.5 L890.6,314.9 L893.9,320.0 L896.0,324.8 L897.1,329.6 L897.6,334.6 L897.5,340.0 Z" fill="none" stroke="#9D4EDD" stroke-opacity="0.076" stroke-width="0.90"/>
<path d="M924.8,340.0 L922.5,346.4 L919.6,353.3 L915.8,360.4 L910.9,367.4 L904.8,374.1 L897.4,380.4 L888.8,386.4 L879.3,392.2 L869.3,398.0 L859.1,403.7 L849.1,409.0 L839.4,413.6 L830.2,417.1 L821.3,419.3 L812.4,420.2 L803.2,420.2 L793.3,420.0 L782.5,420.2 L770.7,421.5 L757.9,423.8 L744.1,427.2 L729.8,431.1 L715.0,434.7 L700.0,437.5 L685.0,439.1 L669.9,439.6 L655.0,439.1 L640.1,438.2 L625.4,437.1 L611.0,436.1 L597.1,434.9 L584.2,433.1 L572.4,430.3 L562.1,426.1 L553.4,420.4 L546.1,413.6 L540.2,406.0 L535.2,398.4 L530.7,391.3 L526.3,384.8 L521.6,379.1 L516.5,373.9 L511.1,368.8 L505.6,363.6 L500.2,358.0 L495.5,352.2 L491.8,346.2 L489.2,340.0 L487.9,333.8 L487.8,327.4 L488.6,320.7 L490.2,313.7 L492.4,306.3 L495.0,298.7 L498.2,291.4 L502.1,284.8 L507.1,279.2 L513.5,274.9 L521.6,271.8 L531.5,269.4 L543.1,267.3 L556.2,265.1 L570.5,262.6 L585.5,259.8 L600.7,257.0 L615.9,254.6 L630.7,253.0 L645.1,252.1 L659.2,251.6 L672.9,251.2 L686.5,250.3 L700.0,248.5 L713.5,245.9 L726.8,242.7 L740.0,239.7 L752.8,237.7 L765.4,237.3 L777.7,238.8 L789.8,242.1 L802.0,246.9 L814.4,252.5 L827.3,258.3 L840.5,264.0 L854.1,269.4 L867.6,274.7 L880.7,280.2 L892.8,286.0 L903.5,292.2 L912.2,298.7 L918.9,305.3 L923.5,311.6 L926.3,317.5 L927.4,323.1 L927.3,328.5 L926.4,334.1 L924.8,340.0 Z" fill="none" stroke="#9D4EDD" stroke-opacity="0.072" stroke-width="0.90"/>
<path d="M949.8,340.0 L946.5,347.2 L942.8,354.9 L938.5,362.8 L933.5,370.7 L927.5,378.4 L920.5,385.8 L912.3,393.0 L903.2,400.1 L893.4,407.2 L883.2,414.1 L872.8,420.7 L862.6,426.5 L852.5,431.0 L842.4,433.9 L832.2,435.4 L821.3,435.7 L809.7,435.5 L796.9,435.5 L782.9,436.4 L767.7,438.2 L751.6,441.1 L734.7,444.3 L717.4,447.4 L700.0,449.8 L682.7,451.2 L665.6,451.6 L648.9,451.2 L632.5,450.5 L616.4,449.8 L600.8,449.1 L585.9,448.2 L571.9,446.7 L558.9,444.0 L547.4,439.7 L537.3,433.8 L528.6,426.5 L521.2,418.2 L514.7,409.7 L508.7,401.4 L502.7,393.8 L496.4,386.7 L489.7,380.2 L482.5,373.8 L475.1,367.4 L467.9,360.8 L461.3,353.9 L455.9,347.0 L452.0,340.0 L449.8,333.0 L449.2,325.8 L450.3,318.3 L452.7,310.4 L456.2,302.0 L460.6,293.3 L465.9,284.8 L472.1,276.9 L479.5,270.1 L488.2,264.5 L498.6,260.1 L510.6,256.5 L524.3,253.5 L539.4,250.5 L555.6,247.4 L572.5,244.3 L589.5,241.5 L606.4,239.3 L622.9,238.1 L638.9,237.7 L654.5,237.8 L669.7,238.0 L684.8,237.5 L700.0,236.2 L715.3,233.8 L730.6,230.7 L746.0,227.7 L761.3,225.4 L776.4,224.7 L791.3,225.8 L806.1,228.8 L820.8,233.3 L835.5,238.8 L850.4,244.7 L865.5,250.6 L880.6,256.5 L895.5,262.5 L909.6,268.9 L922.6,275.8 L933.8,283.2 L942.9,291.1 L949.6,298.9 L953.9,306.5 L955.9,313.7 L956.1,320.4 L954.8,326.8 L952.6,333.2 L949.8,340.0 Z" fill="none" stroke="#9D4EDD" stroke-opacity="0.068" stroke-width="0.90"/>
<path d="M973.4,340.0 L969.5,348.4 L965.6,357.2 L961.4,366.3 L956.7,375.3 L951.4,384.3 L945.1,393.0 L937.7,401.6 L929.2,410.3 L919.8,419.0 L909.6,427.6 L899.0,435.9 L888.0,443.2 L876.7,449.1 L865.1,453.3 L853.1,455.8 L840.3,456.8 L826.4,457.0 L811.4,457.2 L795.0,457.9 L777.4,459.4 L758.7,461.6 L739.4,464.3 L719.7,466.7 L700.0,468.5 L680.6,469.3 L661.7,469.3 L643.4,468.6 L625.6,467.8 L608.3,467.1 L591.6,466.5 L575.6,465.7 L560.4,464.3 L546.1,461.7 L533.0,457.3 L521.2,451.1 L510.7,443.2 L501.3,434.1 L492.8,424.6 L484.7,415.0 L476.8,405.9 L468.5,397.4 L459.9,389.2 L450.9,381.1 L441.7,373.1 L432.8,364.9 L424.8,356.6 L418.2,348.3 L413.4,340.0 L410.7,331.8 L410.3,323.5 L412.1,314.9 L415.8,305.8 L421.1,296.1 L427.7,286.1 L435.4,276.1 L444.3,266.7 L454.2,258.2 L465.4,251.0 L477.9,244.9 L492.0,239.8 L507.5,235.3 L524.2,231.1 L541.9,227.0 L560.3,223.2 L578.8,220.0 L597.1,217.7 L615.0,216.6 L632.4,216.5 L649.5,217.2 L666.3,218.0 L683.1,218.3 L700.0,217.5 L717.2,215.7 L734.8,213.0 L752.6,210.2 L770.5,208.1 L788.3,207.4 L805.9,208.4 L823.3,211.3 L840.4,215.7 L857.2,221.1 L873.9,227.1 L890.4,233.3 L906.7,239.8 L922.3,246.6 L937.1,254.0 L950.3,262.2 L961.7,271.1 L970.8,280.4 L977.3,290.0 L981.2,299.2 L982.6,308.0 L982.1,316.3 L980.0,324.2 L977.0,332.0 L973.4,340.0 Z" fill="none" stroke="#9D4EDD" stroke-opacity="0.064" stroke-width="0.90"/>
<path d="M996.8,340.0 L993.0,349.9 L989.4,360.1 L985.7,370.4 L981.9,380.8 L977.5,391.1 L972.2,401.3 L965.7,411.4 L958.0,421.7 L948.9,432.1 L938.6,442.6 L927.3,452.7 L915.2,461.8 L902.4,469.5 L888.9,475.3 L874.6,479.1 L859.4,481.3 L843.1,482.3 L825.5,482.9 L806.6,483.7 L786.5,485.0 L765.4,486.9 L743.7,488.9 L721.7,490.6 L700.0,491.5 L678.7,491.5 L658.2,490.7 L638.4,489.5 L619.3,488.2 L600.9,487.2 L583.0,486.4 L565.7,485.6 L549.1,484.1 L533.2,481.3 L518.2,476.8 L504.2,470.2 L491.4,461.8 L479.5,452.0 L468.5,441.4 L458.1,430.7 L447.9,420.1 L437.6,409.8 L427.1,399.8 L416.4,389.9 L405.8,380.0 L395.8,369.9 L386.8,359.8 L379.6,349.8 L374.6,340.0 L372.1,330.3 L372.5,320.7 L375.4,310.7 L380.8,300.3 L388.3,289.3 L397.3,277.9 L407.7,266.4 L419.1,255.3 L431.5,245.1 L445.0,236.0 L459.5,228.1 L475.2,221.2 L492.1,214.9 L510.1,209.1 L528.9,203.6 L548.3,198.7 L567.9,194.7 L587.4,192.0 L606.6,190.7 L625.4,190.9 L644.0,192.0 L662.4,193.4 L681.0,194.4 L700.0,194.5 L719.4,193.5 L739.4,191.5 L759.8,189.4 L780.3,187.7 L800.9,187.3 L821.1,188.5 L840.9,191.5 L860.2,195.9 L878.9,201.4 L897.0,207.6 L914.5,214.2 L931.3,221.2 L947.3,228.7 L962.2,237.2 L975.5,246.6 L986.7,256.9 L995.6,268.0 L1002.0,279.3 L1005.6,290.5 L1006.9,301.1 L1006.1,311.2 L1003.7,320.9 L1000.5,330.4 L996.8,340.0 Z" fill="none" stroke="#9D4EDD" stroke-opacity="0.060" stroke-width="0.90"/>
<path d="M1021.4,340.0 L1018.3,351.3 L1015.5,362.8 L1012.8,374.3 L1009.9,385.9 L1006.6,397.3 L1002.3,408.7 L996.7,420.1 L989.4,431.8 L980.3,443.7 L969.6,455.8 L957.2,467.6 L943.6,478.6 L928.7,488.0 L912.9,495.5 L896.0,500.8 L878.1,504.3 L859.0,506.3 L838.8,507.7 L817.3,508.8 L794.7,510.2 L771.3,511.7 L747.5,513.1 L723.6,514.0 L700.0,514.0 L677.1,513.1 L655.0,511.3 L633.8,509.2 L613.4,507.1 L593.7,505.5 L574.5,504.3 L555.7,503.2 L537.3,501.6 L519.4,498.7 L502.1,494.0 L485.6,487.3 L470.0,478.6 L455.4,468.2 L441.6,456.9 L428.6,445.2 L416.1,433.4 L403.8,421.7 L391.7,410.1 L379.9,398.4 L368.4,386.7 L357.8,374.8 L348.7,363.0 L341.5,351.4 L337.0,340.0 L335.4,328.9 L336.9,318.0 L341.5,306.8 L348.8,295.2 L358.5,283.1 L370.0,270.4 L382.8,257.7 L396.6,245.2 L411.2,233.5 L426.6,222.8 L442.6,213.2 L459.6,204.4 L477.4,196.4 L496.2,188.9 L515.7,181.9 L535.9,175.7 L556.3,170.7 L576.8,167.2 L597.3,165.6 L617.6,165.7 L637.8,167.2 L658.2,169.2 L678.8,171.0 L700.0,172.0 L721.8,171.9 L744.3,171.0 L767.3,169.7 L790.5,168.8 L813.7,168.9 L836.4,170.6 L858.4,173.8 L879.5,178.4 L899.6,184.1 L918.7,190.4 L936.9,197.1 L954.0,204.4 L970.0,212.5 L984.6,221.7 L997.7,232.1 L1008.8,243.6 L1017.7,256.1 L1024.1,269.1 L1028.0,281.9 L1029.5,294.4 L1029.1,306.3 L1027.2,317.7 L1024.5,328.9 L1021.4,340.0 Z" fill="none" stroke="#9D4EDD" stroke-opacity="0.056" stroke-width="0.90"/>
<path d="M1048.5,340.0 L1046.6,352.3 L1044.9,364.7 L1043.3,377.1 L1041.5,389.3 L1039.0,401.4 L1035.4,413.5 L1030.2,425.6 L1022.9,438.1 L1013.4,451.0 L1001.7,464.2 L987.8,477.3 L972.1,489.6 L954.8,500.5 L936.2,509.5 L916.5,516.3 L895.6,521.0 L873.7,524.2 L850.8,526.3 L826.8,528.0 L802.0,529.5 L776.6,530.9 L750.9,531.8 L725.2,532.0 L700.0,531.1 L675.5,529.1 L652.0,526.2 L629.3,523.0 L607.5,520.0 L586.2,517.6 L565.4,515.8 L544.8,514.3 L524.3,512.5 L504.0,509.6 L484.1,505.0 L464.8,498.3 L446.2,489.6 L428.6,479.2 L412.1,467.7 L396.6,455.5 L381.9,443.0 L368.0,430.5 L354.8,417.8 L342.3,405.0 L330.7,391.9 L320.3,378.7 L311.7,365.5 L305.4,352.5 L301.9,340.0 L301.6,327.9 L304.6,316.0 L311.0,304.1 L320.3,291.8 L332.0,279.0 L345.6,265.7 L360.5,252.2 L376.3,238.9 L392.6,226.2 L409.3,214.4 L426.4,203.5 L444.1,193.4 L462.5,183.9 L481.7,174.9 L501.6,166.5 L522.3,159.0 L543.5,152.8 L565.0,148.6 L586.8,146.4 L608.8,146.4 L630.9,148.0 L653.4,150.4 L676.4,153.0 L700.0,154.9 L724.4,155.9 L749.4,156.1 L775.0,155.8 L800.7,155.9 L826.3,156.8 L851.1,159.1 L875.0,162.7 L897.7,167.5 L918.9,173.2 L938.7,179.4 L957.1,186.1 L974.2,193.4 L990.0,201.6 L1004.5,210.9 L1017.4,221.8 L1028.6,234.0 L1037.7,247.3 L1044.7,261.3 L1049.4,275.4 L1051.9,289.2 L1052.6,302.5 L1052.0,315.3 L1050.4,327.7 L1048.5,340.0 Z" fill="none" stroke="#9D4EDD" stroke-opacity="0.052" stroke-width="0.90"/>
<path d="M1079.2,340.0 L1078.8,352.9 L1078.2,365.7 L1077.5,378.4 L1076.5,390.8 L1074.5,403.0 L1071.0,415.0 L1065.6,427.3 L1057.7,439.9 L1047.1,453.1 L1033.8,466.7 L1017.9,480.5 L999.7,493.6 L979.7,505.5 L958.1,515.6 L935.3,523.6 L911.5,529.5 L886.9,533.7 L861.4,536.7 L835.2,539.1 L808.4,540.9 L781.2,542.3 L753.9,543.0 L726.7,542.6 L700.0,540.8 L674.0,537.8 L649.0,533.8 L624.7,529.5 L601.2,525.5 L578.1,522.2 L555.3,519.7 L532.5,517.7 L509.6,515.6 L486.7,512.7 L463.9,508.3 L441.6,501.9 L420.1,493.6 L399.6,483.6 L380.5,472.4 L362.7,460.4 L346.4,447.9 L331.4,435.2 L317.7,422.1 L305.2,408.7 L294.2,394.9 L284.7,380.9 L277.3,366.9 L272.4,353.2 L270.3,340.0 L271.6,327.3 L276.2,315.0 L284.2,302.8 L295.1,290.3 L308.5,277.4 L323.7,264.1 L340.1,250.5 L357.2,237.1 L374.5,224.1 L392.0,211.9 L409.7,200.3 L427.8,189.4 L446.3,178.9 L465.7,168.8 L485.9,159.2 L507.1,150.5 L529.1,143.3 L551.8,138.1 L575.2,135.4 L599.1,135.0 L623.4,136.5 L648.3,139.3 L673.8,142.4 L700.0,145.2 L726.9,147.2 L754.5,148.4 L782.5,149.3 L810.5,150.4 L838.1,152.3 L864.9,155.2 L890.3,159.3 L914.1,164.4 L936.1,170.1 L956.4,176.1 L975.0,182.5 L992.0,189.4 L1007.8,197.2 L1022.2,206.2 L1035.3,216.9 L1046.9,229.1 L1056.9,242.6 L1065.0,257.0 L1071.2,271.7 L1075.5,286.2 L1078.1,300.2 L1079.3,313.8 L1079.5,327.0 L1079.2,340.0 Z" fill="none" stroke="#9D4EDD" stroke-opacity="0.048" stroke-width="0.90"/>
<path d="M1113.9,340.0 L1114.8,353.2 L1115.2,366.2 L1115.1,378.9 L1114.2,391.2 L1111.9,403.1 L1107.9,414.8 L1101.5,426.7 L1092.3,439.0 L1080.0,452.0 L1064.6,465.5 L1046.3,479.4 L1025.4,492.9 L1002.4,505.4 L977.9,516.3 L952.1,525.2 L925.6,532.1 L898.4,537.4 L870.7,541.4 L842.5,544.5 L814.1,547.0 L785.4,548.7 L756.6,549.4 L728.1,548.6 L700.0,546.3 L672.5,542.4 L645.7,537.4 L619.7,532.0 L594.1,526.9 L568.9,522.5 L543.8,519.1 L518.5,516.5 L493.0,514.1 L467.3,511.0 L441.6,506.7 L416.4,500.7 L392.1,492.9 L369.1,483.5 L347.7,472.9 L328.3,461.4 L310.8,449.4 L295.4,437.0 L281.8,424.0 L270.1,410.6 L260.1,396.6 L252.2,382.2 L246.4,367.8 L243.2,353.6 L242.8,340.0 L245.6,327.0 L251.6,314.5 L260.7,302.3 L272.7,289.9 L287.1,277.3 L303.1,264.3 L320.2,251.1 L337.9,238.0 L355.7,225.3 L373.5,213.1 L391.3,201.4 L409.4,190.1 L428.1,179.0 L447.6,168.1 L468.2,157.6 L490.0,147.9 L513.1,139.6 L537.3,133.5 L562.5,129.9 L588.6,128.9 L615.4,130.1 L642.9,132.9 L671.1,136.3 L700.0,139.7 L729.5,142.6 L759.4,144.8 L789.6,146.8 L819.6,149.0 L848.9,151.9 L877.1,155.7 L903.8,160.5 L928.5,165.9 L951.2,171.8 L971.9,177.7 L990.8,183.7 L1008.1,190.1 L1024.0,197.3 L1038.8,205.7 L1052.6,215.8 L1065.2,227.6 L1076.6,240.8 L1086.6,255.1 L1094.9,269.8 L1101.6,284.5 L1106.6,298.9 L1110.1,312.9 L1112.4,326.6 L1113.9,340.0 Z" fill="none" stroke="#9D4EDD" stroke-opacity="0.044" stroke-width="0.90"/>
<path d="M1152.4,340.0 L1154.3,353.7 L1155.2,367.0 L1154.9,379.9 L1153.4,392.3 L1150.1,404.1 L1144.7,415.6 L1136.5,427.1 L1125.3,439.1 L1110.8,451.7 L1092.9,465.1 L1072.0,478.9 L1048.4,492.6 L1022.6,505.5 L995.2,517.0 L966.8,526.8 L937.8,534.8 L908.5,541.2 L878.9,546.3 L849.2,550.6 L819.3,554.0 L789.4,556.4 L759.4,557.4 L729.6,556.8 L700.0,554.1 L670.8,549.7 L642.2,543.9 L613.9,537.4 L586.1,531.1 L558.4,525.5 L530.6,521.0 L502.7,517.4 L474.4,514.2 L446.0,510.7 L417.7,506.2 L389.9,500.2 L363.2,492.6 L338.2,483.6 L315.2,473.4 L294.6,462.5 L276.7,450.9 L261.4,438.8 L248.5,426.1 L238.0,412.6 L229.6,398.4 L223.5,383.7 L219.5,368.8 L218.0,354.2 L219.1,340.0 L223.0,326.5 L229.8,313.7 L239.5,301.2 L251.8,288.8 L266.3,276.3 L282.4,263.5 L299.4,250.7 L317.0,237.9 L334.8,225.5 L352.5,213.5 L370.3,201.9 L388.4,190.4 L407.2,178.9 L427.1,167.4 L448.3,156.0 L471.2,145.2 L495.7,135.8 L521.7,128.6 L549.2,123.9 L577.7,121.9 L607.3,122.5 L637.6,124.9 L668.5,128.2 L700.0,131.9 L731.9,135.3 L764.0,138.4 L796.0,141.5 L827.7,144.8 L858.4,148.9 L887.8,153.9 L915.5,159.6 L941.1,165.8 L964.5,172.1 L985.9,178.2 L1005.3,184.3 L1023.2,190.4 L1039.9,197.2 L1055.6,205.2 L1070.7,214.7 L1085.0,226.1 L1098.4,239.0 L1110.8,253.0 L1121.8,267.8 L1131.2,282.7 L1138.9,297.4 L1144.9,311.9 L1149.3,326.1 L1152.4,340.0 Z" fill="none" stroke="#9D4EDD" stroke-opacity="0.040" stroke-width="0.90"/>
<path d="M1193.8,340.0 L1196.1,354.8 L1196.7,369.2 L1195.5,383.0 L1192.5,396.0 L1187.4,408.4 L1179.7,420.2 L1169.2,432.0 L1155.5,444.0 L1138.5,456.7 L1118.0,470.1 L1094.5,484.0 L1068.3,498.0 L1040.0,511.4 L1010.3,523.7 L979.7,534.4 L948.8,543.6 L917.7,551.3 L886.6,557.9 L855.6,563.5 L824.6,568.2 L793.6,571.8 L762.4,573.7 L731.2,573.5 L700.0,571.1 L668.9,566.3 L638.1,559.9 L607.4,552.5 L576.9,545.0 L546.5,538.1 L516.0,532.2 L485.3,527.2 L454.4,522.7 L423.5,518.1 L392.9,512.6 L363.1,506.0 L334.6,498.0 L308.1,488.8 L284.2,478.5 L263.2,467.6 L245.3,456.0 L230.6,443.8 L218.8,430.9 L209.7,417.0 L203.1,402.3 L198.6,386.8 L196.3,371.0 L196.1,355.3 L198.2,340.0 L202.7,325.4 L209.6,311.6 L219.1,298.2 L230.9,285.1 L244.6,272.0 L260.0,258.9 L276.4,245.8 L293.4,233.0 L310.7,220.6 L328.2,208.5 L346.0,196.8 L364.3,185.0 L383.6,173.0 L404.3,160.7 L426.6,148.4 L451.0,136.4 L477.3,125.7 L505.6,117.0 L535.6,110.9 L567.0,107.7 L599.3,107.1 L632.5,108.6 L666.1,111.4 L700.0,114.9 L734.0,118.6 L768.0,122.4 L801.6,126.4 L834.6,130.9 L866.5,136.3 L897.0,142.7 L925.6,149.8 L952.2,157.3 L976.6,164.7 L998.9,171.8 L1019.5,178.4 L1038.6,185.0 L1056.6,192.0 L1074.0,200.1 L1091.0,209.6 L1107.5,221.0 L1123.4,234.0 L1138.6,248.3 L1152.4,263.4 L1164.7,278.8 L1175.1,294.4 L1183.4,309.7 L1189.6,325.0 L1193.8,340.0 Z" fill="none" stroke="#9D4EDD" stroke-opacity="0.036" stroke-width="0.90"/>
<path d="M1236.5,340.0 L1238.5,356.7 L1238.0,372.9 L1235.1,388.4 L1229.9,403.1 L1222.2,416.8 L1211.8,429.9 L1198.5,442.5 L1182.1,455.3 L1162.4,468.6 L1139.5,482.6 L1113.7,497.0 L1085.4,511.6 L1055.2,525.7 L1023.7,538.8 L991.5,550.7 L959.1,561.1 L926.7,570.4 L894.5,578.6 L862.5,585.9 L830.5,592.3 L798.3,597.4 L765.8,600.6 L733.1,601.4 L700.0,599.5 L666.7,594.9 L633.4,588.2 L600.0,580.0 L566.7,571.4 L533.5,563.0 L500.2,555.5 L466.9,548.7 L433.7,542.4 L400.7,536.0 L368.3,528.9 L337.0,520.8 L307.5,511.6 L280.3,501.3 L256.0,490.2 L235.0,478.5 L217.6,466.2 L203.7,453.2 L193.0,439.5 L185.3,424.6 L180.1,408.7 L177.0,391.9 L175.8,374.5 L176.4,357.1 L178.7,340.0 L183.0,323.6 L189.2,307.8 L197.6,292.7 L208.1,278.0 L220.5,263.5 L234.5,249.3 L249.8,235.2 L266.0,221.7 L282.9,208.6 L300.3,196.0 L318.4,183.8 L337.4,171.4 L357.7,158.7 L379.8,145.6 L403.8,132.1 L430.2,118.9 L458.9,106.6 L489.7,96.3 L522.5,88.5 L556.7,83.6 L591.9,81.5 L627.8,81.7 L663.9,83.6 L700.0,86.5 L735.9,90.1 L771.5,94.1 L806.4,98.8 L840.5,104.5 L873.5,111.4 L905.0,119.4 L934.7,128.3 L962.5,137.6 L988.3,146.8 L1012.2,155.5 L1034.5,163.6 L1055.4,171.4 L1075.5,179.5 L1095.2,188.4 L1114.5,198.8 L1133.6,210.8 L1152.3,224.6 L1170.3,239.7 L1187.0,255.8 L1201.8,272.4 L1214.5,289.3 L1224.6,306.2 L1231.9,323.1 L1236.5,340.0 Z" fill="none" stroke="#9D4EDD" stroke-opacity="0.032" stroke-width="0.90"/>
<path d="M1278.8,340.0 L1279.6,359.0 L1277.3,377.7 L1272.0,395.6 L1264.0,412.5 L1253.3,428.3 L1239.9,443.2 L1223.7,457.4 L1204.6,471.5 L1182.6,485.9 L1157.7,500.7 L1130.1,515.9 L1100.4,531.2 L1068.9,546.1 L1036.3,560.2 L1003.1,573.1 L969.7,584.8 L936.4,595.5 L903.3,605.3 L870.3,614.4 L837.2,622.6 L803.8,629.4 L769.8,634.2 L735.2,636.4 L700.0,635.4 L664.3,631.4 L628.2,624.7 L592.0,616.1 L555.8,606.6 L519.7,596.9 L483.8,587.6 L448.2,578.9 L413.1,570.4 L378.5,561.8 L345.0,552.6 L312.9,542.4 L282.9,531.2 L255.5,519.2 L231.3,506.6 L210.7,493.4 L193.8,479.8 L180.7,465.6 L170.9,450.5 L164.1,434.3 L159.8,416.8 L157.4,398.3 L156.5,378.9 L157.0,359.4 L158.8,340.0 L162.0,321.2 L166.8,303.0 L173.5,285.5 L182.1,268.6 L192.7,252.0 L205.1,235.9 L219.2,220.4 L234.7,205.5 L251.4,191.3 L269.1,177.9 L288.1,164.8 L308.4,151.8 L330.4,138.3 L354.5,124.2 L380.8,109.7 L409.7,95.2 L441.1,81.5 L474.7,69.5 L510.3,60.0 L547.3,53.3 L585.3,49.4 L623.6,48.1 L662.0,48.6 L700.0,50.6 L737.5,53.6 L774.4,57.6 L810.5,62.7 L845.7,69.3 L879.7,77.5 L912.4,87.3 L943.6,98.2 L973.1,109.6 L1000.8,121.0 L1026.8,131.8 L1051.4,142.0 L1074.9,151.8 L1097.6,161.5 L1119.9,172.0 L1141.9,183.8 L1163.8,197.2 L1185.2,212.2 L1205.7,228.6 L1224.7,246.1 L1241.6,264.3 L1255.8,282.9 L1266.9,301.8 L1274.6,320.8 L1278.8,340.0 Z" fill="none" stroke="#9D4EDD" stroke-opacity="0.028" stroke-width="0.90"/><text x="64" y="58" fill="#F7F3E8" font-family="ui-monospace, SFMono-Regular, Menlo, Monaco, Consolas, 'Liberation Mono', monospace" font-size="14" letter-spacing="3">AEON NOVA / CANONICAL CONTROL PLANE</text><circle cx="700" cy="340" r="104" fill="#0A1017" stroke="#9D4EDD" stroke-width="3" stroke-opacity="0.75"/><circle cx="700" cy="340" r="78" fill="none" stroke="#F7F3E8" stroke-opacity="0.18" stroke-dasharray="5 12"/><circle cx="700" cy="340" r="17" fill="#F7F3E8" filter="url(#microGlow)"/><text x="700" y="306" text-anchor="middle" fill="#F7F3E8" font-family="ui-monospace, SFMono-Regular, Menlo, Monaco, Consolas, 'Liberation Mono', monospace" font-size="11" letter-spacing="2">PUBLIC SYSTEM</text><text x="700" y="387" text-anchor="middle" fill="#F7F3E8" font-family="Inter, ui-sans-serif, -apple-system, BlinkMacSystemFont, 'Segoe UI', sans-serif" font-size="25" font-weight="720">EchoState</text><path d="M700,340 C475.0,340.0 475.0,190.0 250,190" fill="none" stroke="#2A7F7A" stroke-opacity="0.27" stroke-width="1.4" stroke-dasharray="3 8"/><circle cx="250" cy="190" r="48" fill="#0A1017" stroke="#2A7F7A" stroke-opacity="0.66" stroke-width="2"/><circle cx="250" cy="190" r="8" fill="#2A7F7A" filter="url(#microGlow)"/><text x="316" y="183" text-anchor="start" fill="#F7F3E8" font-family="Inter, ui-sans-serif, -apple-system, BlinkMacSystemFont, 'Segoe UI', sans-serif" font-size="19" font-weight="650">Packet OS</text><text x="316" y="207" text-anchor="start" fill="#F7F3E8" opacity="0.52" font-family="Inter, ui-sans-serif, -apple-system, BlinkMacSystemFont, 'Segoe UI', sans-serif" font-size="12">governance transaction substrate</text><path d="M700,340 C919.0,340.0 919.0,188.0 1138,188" fill="none" stroke="#F5B14C" stroke-opacity="0.27" stroke-width="1.4" stroke-dasharray="3 8"/><circle cx="1138" cy="188" r="48" fill="#0A1017" stroke="#F5B14C" stroke-opacity="0.66" stroke-width="2"/><circle cx="1138" cy="188" r="8" fill="#F5B14C" filter="url(#microGlow)"/><text x="1072" y="181" text-anchor="end" fill="#F7F3E8" font-family="Inter, ui-sans-serif, -apple-system, BlinkMacSystemFont, 'Segoe UI', sans-serif" font-size="19" font-weight="650">MindScope</text><text x="1072" y="205" text-anchor="end" fill="#F7F3E8" opacity="0.52" font-family="Inter, ui-sans-serif, -apple-system, BlinkMacSystemFont, 'Segoe UI', sans-serif" font-size="12">structural truth plane</text><path d="M700,340 C930.0,340.0 930.0,485.0 1160,485" fill="none" stroke="#B87333" stroke-opacity="0.27" stroke-width="1.4" stroke-dasharray="3 8"/><circle cx="1160" cy="485" r="48" fill="#0A1017" stroke="#B87333" stroke-opacity="0.66" stroke-width="2"/><circle cx="1160" cy="485" r="8" fill="#B87333" filter="url(#microGlow)"/><text x="1094" y="478" text-anchor="end" fill="#F7F3E8" font-family="Inter, ui-sans-serif, -apple-system, BlinkMacSystemFont, 'Segoe UI', sans-serif" font-size="19" font-weight="650">SecondBrain</text><text x="1094" y="502" text-anchor="end" fill="#F7F3E8" opacity="0.52" font-family="Inter, ui-sans-serif, -apple-system, BlinkMacSystemFont, 'Segoe UI', sans-serif" font-size="12">durable institutional memory</text><path d="M700,340 C465.0,340.0 465.0,492.0 230,492" fill="none" stroke="#9D4EDD" stroke-opacity="0.27" stroke-width="1.4" stroke-dasharray="3 8"/><circle cx="230" cy="492" r="48" fill="#0A1017" stroke="#9D4EDD" stroke-opacity="0.66" stroke-width="2"/><circle cx="230" cy="492" r="8" fill="#9D4EDD" filter="url(#microGlow)"/><text x="296" y="485" text-anchor="start" fill="#F7F3E8" font-family="Inter, ui-sans-serif, -apple-system, BlinkMacSystemFont, 'Segoe UI', sans-serif" font-size="19" font-weight="650">SpectralSweep</text><text x="296" y="509" text-anchor="start" fill="#F7F3E8" opacity="0.52" font-family="Inter, ui-sans-serif, -apple-system, BlinkMacSystemFont, 'Segoe UI', sans-serif" font-size="12">external intelligence</text><path d="M700,340 C700.0,340.0 700.0,588.0 700,588" fill="none" stroke="#F7F3E8" stroke-opacity="0.27" stroke-width="1.4" stroke-dasharray="3 8"/><circle cx="700" cy="588" r="48" fill="#0A1017" stroke="#F7F3E8" stroke-opacity="0.66" stroke-width="2"/><circle cx="700" cy="588" r="8" fill="#F7F3E8" filter="url(#microGlow)"/><text x="700" y="518" text-anchor="middle" fill="#F7F3E8" font-family="Inter, ui-sans-serif, -apple-system, BlinkMacSystemFont, 'Segoe UI', sans-serif" font-size="19" font-weight="650">NOVA Observatory</text><text x="700" y="542" text-anchor="middle" fill="#F7F3E8" opacity="0.52" font-family="Inter, ui-sans-serif, -apple-system, BlinkMacSystemFont, 'Segoe UI', sans-serif" font-size="12">observability surface</text><path d="M700,340 C700.0,340.0 700.0,105.0 700,105" fill="none" stroke="#F06423" stroke-opacity="0.27" stroke-width="1.4" stroke-dasharray="3 8"/><circle cx="700" cy="105" r="48" fill="#0A1017" stroke="#F06423" stroke-opacity="0.66" stroke-width="2"/><circle cx="700" cy="105" r="8" fill="#F06423" filter="url(#microGlow)"/><text x="700" y="177" text-anchor="middle" fill="#F7F3E8" font-family="Inter, ui-sans-serif, -apple-system, BlinkMacSystemFont, 'Segoe UI', sans-serif" font-size="19" font-weight="650">AgentHub</text><text x="700" y="201" text-anchor="middle" fill="#F7F3E8" opacity="0.52" font-family="Inter, ui-sans-serif, -apple-system, BlinkMacSystemFont, 'Segoe UI', sans-serif" font-size="12">review + promotion surface</text><text x="700" y="655" text-anchor="middle" fill="#F7F3E8" opacity="0.48" font-family="ui-monospace, SFMono-Regular, Menlo, Monaco, Consolas, 'Liberation Mono', monospace" font-size="11" letter-spacing="1.4">THE REACTOR™ = INTERNAL EXECUTION CHAMBER · RESONANCE = CROSS-SYSTEM STATE CUE</text></svg>
